<svg width="16" height="20" viewBox="0 0 16 20" fill="none" xmlns="http://www.w3.org/2000/svg">
<path d="M8 9.6709L8 15.6709M8 15.6709L11 13.6709M8 15.6709L5 13.6709M15.0002 6.6709H12.2002C11.0801 6.6709 10.5196 6.67087 10.0918 6.45288C9.71547 6.26113 9.40973 5.95519 9.21799 5.57887C9 5.15104 9 4.591 9 3.4709V0.670898M15 15.4709V6.9964C15 6.50722 14.9996 6.26258 14.9443 6.03241C14.8953 5.82834 14.8147 5.63328 14.705 5.45433C14.5814 5.2525 14.4089 5.07954 14.063 4.73364L10.9375 1.60815C10.5916 1.26225 10.4186 1.08932 10.2168 0.965637C10.0379 0.85598 9.84282 0.775152 9.63875 0.726159C9.40858 0.670898 9.1639 0.670898 8.67471 0.670898H4.2002C3.08009 0.670898 2.51962 0.670898 2.0918 0.888886C1.71547 1.08063 1.40973 1.38662 1.21799 1.76294C1 2.19076 1 2.75081 1 3.87091V15.4709C1 16.591 1 17.151 1.21799 17.5789C1.40973 17.9552 1.71547 18.2611 2.0918 18.4529C2.51962 18.6709 3.08009 18.6709 4.2002 18.6709H11.8002C12.9203 18.6709 13.48 18.6709 13.9078 18.4529C14.2841 18.2611 14.5905 17.9552 14.7822 17.5789C15.0002 17.151 15 16.591 15 15.4709Z" stroke="#0B0B0B" stroke-width="0.7" stroke-linecap="round" stroke-linejoin="round"/>
</svg>
