<svg width="20" height="20" viewBox="0 0 20 20" fill="none" xmlns="http://www.w3.org/2000/svg">
<path d="M15.7428 16.4083C15.8739 16.5503 16.0954 16.5592 16.2374 16.4281C16.3794 16.297 16.3883 16.0755 16.2572 15.9335L15.7428 16.4083ZM10 9.6709H9.65C9.65 9.75889 9.68314 9.84364 9.74282 9.9083L10 9.6709ZM10 18.3209C5.22274 18.3209 1.35 14.4482 1.35 9.6709H0.65C0.65 14.8348 4.83614 19.0209 10 19.0209V18.3209ZM1.35 9.6709C1.35 4.89364 5.22274 1.0209 10 1.0209V0.320898C4.83614 0.320898 0.65 4.50704 0.65 9.6709H1.35ZM10 1.0209C14.7773 1.0209 18.65 4.89364 18.65 9.6709H19.35C19.35 4.50704 15.1639 0.320898 10 0.320898V1.0209ZM18.65 9.6709C18.65 14.4482 14.7773 18.3209 10 18.3209V19.0209C15.1639 19.0209 19.35 14.8348 19.35 9.6709H18.65ZM16.2572 15.9335L10.2572 9.4335L9.74282 9.9083L15.7428 16.4083L16.2572 15.9335ZM10.35 9.6709V0.670898H9.65V9.6709H10.35ZM10 10.0209H19V9.3209H10V10.0209Z" fill="#0B0B0B"/>
</svg>
